<?xml version="1.0" encoding="utf-8"?>
<!-- Generator: Adobe Illustrator 27.7.0, SVG Export Plug-In . SVG Version: 6.00 Build 0)  -->
<svg version="1.1" id="mdi-map-marker-multiple-outline"
	 xmlns="http://www.w3.org/2000/svg" xmlns:xlink="http://www.w3.org/1999/xlink" x="0px" y="0px" viewBox="0 0 512 512"
	 style="enable-background:new 0 0 512 512;" xml:space="preserve">
<g>
	<path d="M243.2,179.2c0-35.33,28.67-64,64-64c28.16,0,51.97,18.18,60.67,43.26c2.05,6.66,3.33,13.57,3.33,20.74
		c0,35.33-28.67,64-64,64c-27.9,0-51.2-17.66-60.42-42.5C244.48,194.05,243.2,186.62,243.2,179.2 M76.8,179.2
		c0,115.2,130.05,272.9,153.6,302.34L204.8,512c0,0-179.2-198.4-179.2-332.8c0-81.15,54.02-149.76,128-171.78
		C106.5,49.66,76.8,110.85,76.8,179.2 M307.2,0c98.82,0,179.2,80.13,179.2,179.2c0,134.4-179.2,332.8-179.2,332.8
		S128,313.6,128,179.2C128,80.13,208.38,0,307.2,0 M307.2,51.2c-70.66,0-128,57.34-128,128c0,25.6,0,76.8,128,248.58
		c128-171.78,128-222.98,128-248.58C435.2,108.54,377.86,51.2,307.2,51.2z"/>
</g>
</svg>
